<svg xmlns="http://www.w3.org/2000/svg" width="128" height="128" viewBox="0 0 128 128" fill="none">
<circle cx="64" cy="64" r="58.5" fill="#535353" stroke="black" stroke-width="11"/>
<path d="M29.6364 88V41.4545H57.7273V46.4545H35.2727V62.1818H56.2727V67.1818H35.2727V83H58.0909V88H29.6364ZM67.8864 88V41.4545H83.6136C87.25 41.4545 90.2348 42.0758 92.5682 43.3182C94.9015 44.5455 96.6288 46.2348 97.75 48.3864C98.8712 50.5379 99.4318 52.9848 99.4318 55.7273C99.4318 58.4697 98.8712 60.9015 97.75 63.0227C96.6288 65.1439 94.9091 66.8106 92.5909 68.0227C90.2727 69.2197 87.3106 69.8182 83.7045 69.8182H70.9773V64.7273H83.5227C86.0076 64.7273 88.0076 64.3636 89.5227 63.6364C91.053 62.9091 92.1591 61.8788 92.8409 60.5455C93.5379 59.197 93.8864 57.5909 93.8864 55.7273C93.8864 53.8636 93.5379 52.2348 92.8409 50.8409C92.1439 49.447 91.0303 48.3712 89.5 47.6136C87.9697 46.8409 85.947 46.4545 83.4318 46.4545H73.5227V88H67.8864ZM89.7955 67.0909L101.25 88H94.7045L83.4318 67.0909H89.7955Z" fill="white"/>
</svg>