<?xml version="1.0" encoding="utf-8"?>
<!-- Generator: Adobe Illustrator 25.2.3, SVG Export Plug-In . SVG Version: 6.00 Build 0)  -->
<svg version="1.1" xmlns="http://www.w3.org/2000/svg" xmlns:xlink="http://www.w3.org/1999/xlink" x="0px" y="0px"
	 viewBox="0 0 94 94" style="enable-background:new 0 0 94 94;" xml:space="preserve">
<style type="text/css">
	.st0{fill:#A36A00;}
	.st1{fill:#FFFFFF;}
</style>
<g id="Layer_2">
	<path class="st0" d="M51,90.5l-6.2,0.6c-28.7,0-45-30.5-39.2-54.4l4.8-14.5l6.9-7.6C28,7.1,35.5,3.4,53,3.8l14.7,4.7
		c12.1,6,20.6,17.5,22.7,30.9l-0.1,8.4C90,72.3,69.8,89,51,90.5z"/>
</g>
<g id="Layer_1">
	<path class="st1" d="M54.1,76H23.3c-0.4,0-0.8-0.3-0.8-0.8V18.8c0-0.4,0.3-0.8,0.8-0.8h29v8.4c0,0.6,0.4,1,1,1h10.1v16.2
		c0,0.6,0.4,1,1,1s1-0.4,1-1V26.4c0,0,0,0,0,0c0,0,0,0,0,0c0-0.1,0-0.1,0-0.2c0-0.1,0-0.1-0.1-0.2c0-0.1-0.1-0.1-0.1-0.1
		s-0.1-0.1-0.1-0.1c0,0,0,0,0,0c0,0,0,0,0,0L54,16.2c0,0-0.1,0-0.1-0.1c-0.1,0-0.1-0.1-0.2-0.1c-0.1,0-0.1,0-0.2,0c0,0-0.1,0-0.1,0
		h-30c-1.5,0-2.8,1.2-2.8,2.8v56.5c0,1.5,1.2,2.8,2.8,2.8h30.8c0.6,0,1-0.4,1-1S54.7,76,54.1,76z M54.3,19.1l7.4,6.2h-7.4
		C54.3,25.3,54.3,19.1,54.3,19.1z"/>
	<path class="st1" d="M57.9,41.6c0-0.6-0.4-1-1-1H29c-0.6,0-1,0.4-1,1s0.4,1,1,1h27.9C57.5,42.6,57.9,42.2,57.9,41.6z"/>
	<path class="st1" d="M51.8,49.6c0-0.6-0.4-1-1-1H29c-0.6,0-1,0.4-1,1s0.4,1,1,1h21.8C51.4,50.6,51.8,50.2,51.8,49.6z"/>
	<path class="st1" d="M46.8,56.6H29c-0.6,0-1,0.4-1,1s0.4,1,1,1h17.8c0.6,0,1-0.4,1-1S47.3,56.6,46.8,56.6z"/>
	<path class="st1" d="M46.6,64.6H29c-0.6,0-1,0.4-1,1s0.4,1,1,1h17.6c0.6,0,1-0.4,1-1S47.2,64.6,46.6,64.6z"/>
	<path class="st1" d="M65,46c-8.8,0-16,7.2-16,16s7.2,16,16,16s16-7.2,16-16S73.9,46,65,46z M65,76c-7.7,0-14-6.3-14-14
		s6.3-14,14-14s14,6.3,14,14S72.8,76,65,76z"/>
	<path class="st1" d="M73.3,56.5L63,66.8l-5.5-5.5c-0.4-0.4-1-0.4-1.4,0s-0.4,1,0,1.4l6.2,6.2c0.2,0.2,0.5,0.3,0.7,0.3
		s0.5-0.1,0.7-0.3l11-11c0.4-0.4,0.4-1,0-1.4S73.7,56.1,73.3,56.5z"/>
	<path class="st1" d="M56.9,32.6H44.8c-0.6,0-1,0.4-1,1s0.4,1,1,1h12.2c0.6,0,1-0.4,1-1S57.5,32.6,56.9,32.6z"/>
	<path class="st1" d="M27.8,33.3v3.1c0,0.6,0.4,1,1,1h10.4c0.6,0,1-0.4,1-1v-3.1c0-2.2-1.4-4-3.3-4.6c1.1-0.8,1.8-2.1,1.8-3.6
		c0-2.5-2.1-4.6-4.6-4.6s-4.6,2.1-4.6,4.6c0,1.5,0.7,2.7,1.8,3.6C29.2,29.3,27.8,31.2,27.8,33.3z M34,22.5c1.4,0,2.6,1.2,2.6,2.6
		s-1.2,2.6-2.6,2.6s-2.6-1.2-2.6-2.6S32.6,22.5,34,22.5z M29.8,33.3c0-1.6,1.3-2.9,2.9-2.9h2.5c1.6,0,2.9,1.3,2.9,2.9v2.1h-8.4
		L29.8,33.3L29.8,33.3z"/>
	<path class="st0" d="M46.8,2C22,2,1.8,22.2,1.8,47s20.2,45,45,45s45-20.2,45-45S71.6,2,46.8,2z M46.8,89c-23.2,0-42-18.8-42-42
		s18.8-42,42-42s42,18.8,42,42S70,89,46.8,89z"/>
</g>
</svg>
