<svg xmlns="http://www.w3.org/2000/svg" viewBox="0 0 126.7 127.26"><g id="Layer_2" data-name="Layer 2"><path d="M67.82,122.34l-8.53.84c-39.38,0-61.88-41.86-53.82-74.71l8-19.38L23.28,19C37.83,8.55,46.39,2.72,70.45,3.18L90.68,9.69a57.64,57.64,0,0,1,31.24,42.48l-.15,11.47C121.34,97.34,93.64,120.3,67.82,122.34Z" fill="#00933b"/></g><g id="Layer_1" data-name="Layer 1"><path d="M76,92.42H43.78a.8.8,0,0,1-.8-.8v-59a.8.8,0,0,1,.8-.8h30.3v8.72a1,1,0,0,0,1,1H85.66v17a1,1,0,0,0,2.09,0v-18h0v0a.78.78,0,0,0,0-.21c0-.06,0-.13,0-.19s-.07-.09-.1-.15a1.43,1.43,0,0,0-.11-.15l0,0s0,0,0,0L75.8,30a.42.42,0,0,0-.13-.07,1.18,1.18,0,0,0-.19-.11l-.22,0a.7.7,0,0,0-.14,0H43.78a2.89,2.89,0,0,0-2.89,2.89v59a2.89,2.89,0,0,0,2.89,2.89H76a1,1,0,1,0,0-2.09Zm.21-59.37,7.68,6.48H76.17Z" fill="#fff"/><path d="M80,56.52a1,1,0,0,0-1-1.05H49.73a1,1,0,0,0,0,2.09H78.9A1,1,0,0,0,80,56.52Z" fill="#fff"/><path d="M73.57,64.87a1,1,0,0,0-1-1H49.73a1,1,0,0,0,0,2.09H72.52A1,1,0,0,0,73.57,64.87Z" fill="#fff"/><path d="M68.28,72.18H49.73a1,1,0,0,0,0,2.09H68.28a1,1,0,0,0,0-2.09Z" fill="#fff"/><path d="M68.1,80.54H49.73a1,1,0,0,0,0,2.09H68.1a1,1,0,0,0,0-2.09Z" fill="#fff"/><path d="M78.9,47.12H66.18a1,1,0,0,0,0,2.09H78.9a1,1,0,1,0,0-2.09Z" fill="#fff"/><path d="M48.49,47.86v3.21a1,1,0,0,0,1,1H60.37a1,1,0,0,0,1.05-1V47.86A5.16,5.16,0,0,0,57.94,43a4.82,4.82,0,1,0-6,0A5.14,5.14,0,0,0,48.49,47.86ZM55,36.53a2.73,2.73,0,1,1-2.72,2.73A2.73,2.73,0,0,1,55,36.53ZM50.58,47.86a3.08,3.08,0,0,1,3.07-3.07h2.61a3.08,3.08,0,0,1,3.07,3.07V50H50.58V47.86Z" fill="#fff"/><path d="M63.35,1.73A61.85,61.85,0,1,0,125.2,63.57,61.92,61.92,0,0,0,63.35,1.73Zm0,119.57a57.73,57.73,0,1,1,57.73-57.73A57.79,57.79,0,0,1,63.35,121.3Z" fill="#00933b"/><path d="M40.9,40.53v0h0v18a1,1,0,0,0,2.09,0M41.23,39.81l0,0c0,.05-.06.1-.1.15s-.07.1-.1.15m44.67,1v50.5a.8.8,0,0,1-.8.8H52.68a1,1,0,1,0,0,2.09H84.86a2.89,2.89,0,0,0,2.89-2.89V41.12M52.47,33.05" fill="#fff"/></g></svg>