<svg xmlns="http://www.w3.org/2000/svg" viewBox="0 0 128.02 128.58"><g id="Layer_2" data-name="Layer 2"><path d="M70.32,124.46l-8.53.84C22.41,125.3-.09,83.44,8,50.59l6.64-19.9,9.55-10.45C38.72,9.83,48.89,4.85,73,5.3l20.23,6.52a57.62,57.62,0,0,1,31.24,42.47l-.15,11.48C123.84,99.46,96.14,122.43,70.32,124.46Z" fill="#00933b"/></g><g id="Layer_1" data-name="Layer 1"><path d="M73.89,95.39H39.69a.85.85,0,0,1-.85-.85V31.87a.85.85,0,0,1,.85-.85h32.2v9.27A1.11,1.11,0,0,0,73,41.4H84.2v18a1.11,1.11,0,0,0,2.22,0V40.3h0s0,0,0,0a.85.85,0,0,0,0-.22,1.17,1.17,0,0,0-.06-.2l-.11-.16a.83.83,0,0,0-.11-.15s0,0,0,0,0,0,0,0L73.72,29.06,73.58,29a.66.66,0,0,0-.2-.11,1,1,0,0,0-.24-.05.7.7,0,0,0-.14,0H39.69a3.08,3.08,0,0,0-3.07,3.07V94.54a3.08,3.08,0,0,0,3.07,3.07h34.2a1.11,1.11,0,0,0,0-2.22Zm.22-63.09,8.16,6.88H74.11Z" fill="#fff"/><path d="M78.13,57.23A1.11,1.11,0,0,0,77,56.13H46a1.11,1.11,0,1,0,0,2.21H77A1.11,1.11,0,0,0,78.13,57.23Z" fill="#fff"/><path d="M71.35,66.11A1.11,1.11,0,0,0,70.24,65H46a1.11,1.11,0,0,0,0,2.22H70.24A1.11,1.11,0,0,0,71.35,66.11Z" fill="#fff"/><path d="M65.73,73.88H46a1.11,1.11,0,0,0,0,2.22H65.73a1.11,1.11,0,0,0,0-2.22Z" fill="#fff"/><path d="M65.54,82.76H46A1.11,1.11,0,0,0,46,85H65.54a1.11,1.11,0,0,0,0-2.22Z" fill="#fff"/><path d="M86,62.09a17.76,17.76,0,1,0,17.76,17.76A17.78,17.78,0,0,0,86,62.09Zm0,33.3a15.54,15.54,0,1,1,15.54-15.54A15.56,15.56,0,0,1,86,95.39Z" fill="#fff"/><path d="M95.17,73.71,83.71,85.17l-6.11-6.1a1.1,1.1,0,0,0-1.57,0,1.12,1.12,0,0,0,0,1.57l6.89,6.89a1.14,1.14,0,0,0,.79.32,1.11,1.11,0,0,0,.78-.32L96.74,75.28a1.11,1.11,0,0,0-1.57-1.57Z" fill="#fff"/><path d="M77,47.25H63.5a1.11,1.11,0,0,0,0,2.22H77a1.11,1.11,0,0,0,0-2.22Z" fill="#fff"/><path d="M44.7,48v3.41a1.11,1.11,0,0,0,1.11,1.11H57.32a1.11,1.11,0,0,0,1.11-1.11V48a5.46,5.46,0,0,0-3.69-5.15,5.12,5.12,0,1,0-6.34,0A5.46,5.46,0,0,0,44.7,48Zm6.87-12a2.9,2.9,0,1,1-2.9,2.9A2.9,2.9,0,0,1,51.57,36ZM46.92,48a3.27,3.27,0,0,1,3.26-3.26H53A3.27,3.27,0,0,1,56.21,48v2.3H46.92V48Z" fill="#fff"/><path d="M64.48,2.85A61.85,61.85,0,1,0,126.33,64.7,61.92,61.92,0,0,0,64.48,2.85Zm0,119.58A57.73,57.73,0,1,1,122.2,64.7,57.8,57.8,0,0,1,64.48,122.43Z" fill="#00933b"/></g></svg>