<svg xmlns="http://www.w3.org/2000/svg" xmlns:xlink="http://www.w3.org/1999/xlink" xmlns:svgjs="http://svgjs.dev/svgjs" version="1.1" width="1000" height="1000" viewBox="0 0 1000 1000"><rect width="1000" height="1000" fill="#ffffff"/><g transform="matrix(0.7,0,0,0.7,150,281.25)"><svg xmlns="http://www.w3.org/2000/svg" xmlns:xlink="http://www.w3.org/1999/xlink" viewBox="0 0 512 320" data-background-color="#ffffff" preserveAspectRatio="xMidYMid meet" height="625" width="1000"><g id="tight-bounds" transform="matrix(1,0,0,1,0,0)"><svg viewBox="0 0 512 320" height="320" width="512"><g><svg/></g><g><svg viewBox="0 0 512 320" height="320" width="512"><g><path xmlns="http://www.w3.org/2000/svg" d="M96 160c0-88.366 71.634-160 160-160 88.366 0 160 71.634 160 160 0 88.366-71.634 160-160 160-88.366 0-160-71.634-160-160zM256 298.47c76.475 0 138.47-61.995 138.47-138.47 0-76.475-61.995-138.47-138.47-138.47-76.475 0-138.47 61.995-138.47 138.47 0 76.475 61.995 138.47 138.47 138.47z" fill="#000000" fill-rule="nonzero" stroke="none" stroke-width="1" stroke-linecap="butt" stroke-linejoin="miter" stroke-miterlimit="10" stroke-dasharray="" stroke-dashoffset="0" font-family="none" font-weight="none" font-size="none" text-anchor="none" style="mix-blend-mode: normal" data-fill-palette-color="tertiary"/></g><g transform="matrix(1,0,0,1,167.91964062583054,80)"><svg viewBox="0 0 176.1607187483389 160" height="160" width="176.1607187483389"><g><svg viewBox="0 0 176.1607187483389 160" height="160" width="176.1607187483389"><g><svg viewBox="0 0 234.65509942857142 213.12819438598854" height="160" width="176.1607187483389"><g><svg viewBox="0 0 234.65509942857142 213.12819438598854" height="213.12819438598854" width="234.65509942857142"><g id="textblocktransform"><svg viewBox="0 0 234.65509942857142 213.12819438598854" height="213.12819438598854" width="234.65509942857142" id="textblock"><g><svg viewBox="0 0 234.65509942857142 159.0112" height="159.0112" width="234.65509942857142"><g transform="matrix(1,0,0,1,0,0)"><svg width="234.65509942857142" viewBox="3.700000047683716 -35 51.64999771118164 35" height="159.0112" data-palette-color="#dedede"><path d="M25.35 0L3.7 0 3.7-35 25.35-35 25.35-31.55 7.9-31.55 7.9-19.35 23.85-19.35 23.85-15.95 7.9-15.95 7.9-3.45 25.35-3.45 25.35 0ZM36.1 0L31.9 0 31.9-35 43.2-35Q47.3-35 49.9-33.65 52.5-32.3 53.75-29.95 55-27.6 55-24.75L55-24.75Q55-21.45 53.22-18.8 51.45-16.15 47.7-15.05L47.7-15.05 55.35 0 50.4 0 43.3-14.45 43-14.45 36.1-14.45 36.1 0ZM36.1-31.45L36.1-17.75 42.9-17.75Q46.95-17.75 48.8-19.7 50.65-21.65 50.65-24.7L50.65-24.7Q50.65-27.8 48.82-29.63 47-31.45 42.85-31.45L42.85-31.45 36.1-31.45Z" opacity="1" transform="matrix(1,0,0,1,0,0)" fill="#000000" class="wordmark-text-0" data-fill-palette-color="primary" id="text-0"/></svg></g></svg></g><g transform="matrix(1,0,0,1,0,196.5499280512)"><svg viewBox="0 0 234.65509942857142 16.578266334788527" height="16.578266334788527" width="234.65509942857142"><g transform="matrix(1,0,0,1,0,0)"><svg width="234.65509942857142" viewBox="2.25 -35.45000076293945 508.8500061035156 35.95000076293945" height="16.578266334788527" data-palette-color="#dedede"><path d="M3.55-35L21.2-35Q22.05-35 22.05-30.58 22.05-26.15 21.2-26.15L21.2-26.15 12.05-26.15 12.05-20.45 18.15-20.45Q19-20.45 19-16.57 19-12.7 18.2-12.7L18.2-12.7 12.05-12.7 12.05-0.65Q12.05 0.05 10.18 0.28 8.3 0.5 7.05 0.5L7.05 0.5 4.7 0.4Q2.25 0.1 2.25-0.6L2.25-0.6 2.25-33.7Q2.25-34.5 2.58-34.75 2.9-35 3.55-35L3.55-35ZM42.45-11.4L42.45-34Q42.45-35 47.88-35 53.3-35 53.3-34L53.3-34 53.3-11.05Q53.3-5.95 49.65-2.73 46 0.5 39.58 0.5 33.15 0.5 29.13-2.83 25.1-6.15 25.1-11.8L25.1-11.8 25.1-33.95Q25.1-34.95 30.53-34.95 35.95-34.95 35.95-33.95L35.95-33.95 35.95-11.4Q35.95-10.4 37-9.8L37-9.8Q38.1-9.2 39.3-9.2 40.5-9.2 41.48-9.75 42.45-10.3 42.45-11.4L42.45-11.4ZM57-2.95L57-2.95 57-34.05Q57-35.1 62.08-35.1 67.15-35.1 67.15-34.05L67.15-34.05 67.15-9.55 74.85-9.55Q75.75-9.55 76.1-7.2L76.1-7.2Q76.25-6.05 76.25-4.85 76.25-3.65 76.1-2.4L76.1-2.4Q75.7 0 74.8 0L74.8 0 59.4 0Q58.3 0 57.65-0.9 57-1.8 57-2.95ZM78.75-2.95L78.75-2.95 78.75-34.05Q78.75-35.1 83.83-35.1 88.9-35.1 88.9-34.05L88.9-34.05 88.9-9.55 96.6-9.55Q97.5-9.55 97.85-7.2L97.85-7.2Q98-6.05 98-4.85 98-3.65 97.85-2.4L97.85-2.4Q97.45 0 96.55 0L96.55 0 81.15 0Q80.05 0 79.4-0.9 78.75-1.8 78.75-2.95ZM111.7-12.2L111.7-12.2Q112.65-11.45 114.98-10.15 117.3-8.85 119.43-8.85 121.55-8.85 121.55-10.5L121.55-10.5Q121.55-11.25 120.95-11.83 120.35-12.4 118.75-13.15 117.15-13.9 116.35-14.33 115.55-14.75 114.23-15.73 112.9-16.7 112.2-17.75L112.2-17.75Q110.2-20.6 110.2-25 110.2-29.4 113.48-32.43 116.75-35.45 122.05-35.45L122.05-35.45Q125.65-35.45 128.7-34.68 131.75-33.9 131.85-32.65L131.85-32.65Q131.85-32.5 131.85-32.35L131.85-32.35Q131.85-30.6 130.75-27.93 129.65-25.25 129.2-24.95L129.2-24.95Q126-26.6 123.48-26.6 120.95-26.6 120.95-24.8L120.95-24.8Q120.95-23.7 122.8-22.85L122.8-22.85Q123.2-22.65 123.95-22.3 124.7-21.95 125.68-21.48 126.65-21 127.78-20.28 128.9-19.55 130.2-18.35L130.2-18.35Q132.85-15.85 132.85-11.75L132.85-11.75Q132.85-6.4 129.9-3 126.95 0.4 120.8 0.5L120.8 0.5Q117.8 0.5 115.38 0 112.95-0.5 111.15-1.95 109.35-3.4 109.35-5.45 109.35-7.5 110.1-9.53 110.85-11.55 111.7-12.2ZM152-25.9L152-0.8Q152 0.2 147.05 0.2 142.1 0.2 142.1-0.8L142.1-0.8 142.1-25.9 136.1-25.9Q135.25-25.9 134.9-28.2L134.9-28.2Q134.75-29.3 134.75-30.45 134.75-31.6 134.9-32.7L134.9-32.7Q135.25-35 136.1-35L136.1-35 157.85-35Q158.7-35 159.05-32.7L159.05-32.7Q159.2-31.6 159.2-30.45 159.2-29.3 159.05-28.2L159.05-28.2Q158.7-25.9 157.85-25.9L157.85-25.9 152-25.9ZM184.3 0.1L184.3 0.1Q179.95 0.1 179.6-1.3L179.6-1.3 177.95-7.75 170-7.75 168.55-1.55Q168.25 0 163.75 0L163.75 0Q161.35 0 160.2-0.28 159.05-0.55 159.05-0.7L159.05-0.7 167.9-34.55Q167.9-34.95 174.75-34.95 181.6-34.95 181.6-34.55L181.6-34.55 190.25-0.65Q190.25-0.3 187.95-0.1 185.65 0.1 184.3 0.1ZM173.95-24.45L171.25-14.1 176.5-14.1 174.25-24.45 173.95-24.45ZM207.85-35.45Q211.5-35.45 214.28-34.43 217.05-33.4 217.05-31.65 217.05-29.9 215.73-27.33 214.4-24.75 213.5-24.75L213.5-24.75Q213.25-24.75 212.93-25.03 212.6-25.3 211.43-25.63 210.25-25.95 209.4-25.95L209.4-25.95Q206.5-25.95 204.73-23.9 202.95-21.85 202.95-17.63 202.95-13.4 204.78-11.35 206.6-9.3 209.4-9.3L209.4-9.3Q210.55-9.3 211.98-9.63 213.4-9.95 214-10.55L214-10.55Q214.1-10.65 214.4-10.65 214.7-10.65 215.53-9.53 216.35-8.4 217.05-6.58 217.75-4.75 217.75-3.75L217.75-3.75Q217.75-1.8 214.75-0.65 211.75 0.5 207.65 0.5L207.65 0.5Q201.05 0.5 196.8-4.15 192.55-8.8 192.55-17.28 192.55-25.75 196.93-30.6 201.3-35.45 207.85-35.45L207.85-35.45ZM231.6-12.75L231.6-0.7Q231.6 0.05 226.9 0.05L226.9 0.05 224.1-0.1Q221.6-0.3 221.6-0.8L221.6-0.8 221.6-34.35Q221.6-35.2 226.6-35.2 231.6-35.2 231.6-34.35L231.6-34.35 231.6-21.55 237.7-34.35Q238.05-35.05 241.7-35.05L241.7-35.05Q248.35-35.05 248.7-33.9L248.7-33.9Q248.7-33.8 248.65-33.7L248.65-33.7 239.95-18 250.05-4.05Q250.05-3.95 249.1-3.2L249.1-3.2Q246.8-1.2 243.7-0.05L243.7-0.05Q242.75 0.3 241.8 0.3L241.8 0.3 240.6 0.2Q239-0.2 238.1-1.85L238.1-1.85 232.4-12.75 231.6-12.75ZM262-2.3L262-2.3 262-32.3Q262-33.55 262.63-34.27 263.25-35 264.25-35L264.25-35 272.6-35Q280.55-35 284.68-31 288.8-27 288.8-18.4L288.8-18.4Q288.8 0 273.1 0L273.1 0 264.55 0Q262 0 262-2.3ZM272.1-25.5L271.6-25.5 271.6-10.55Q271.6-9.5 271.75-9.22 271.9-8.95 272.65-8.95L272.65-8.95Q275.4-8.95 276.83-11 278.25-13.05 278.25-17.82 278.25-22.6 276.78-24.05 275.3-25.5 272.1-25.5L272.1-25.5ZM302.6-21.1L309.05-21.1Q310-21.1 310-17.6L310-17.6Q310-16.55 309.78-15.13 309.55-13.7 308.95-13.7L308.95-13.7 302.6-13.7 302.6-8.7 311.8-8.7Q312.65-8.7 312.95-6.5L312.95-6.5Q313.1-5.55 313.1-4.48 313.1-3.4 312.8-1.7 312.5 0 311.8 0L311.8 0 294.7 0Q292.8 0 292.8-1.55L292.8-1.55 292.8-33.7Q292.8-35 293.95-35L293.95-35 311.85-35Q312.9-35 312.9-30.58 312.9-26.15 311.85-26.15L311.85-26.15 302.6-26.15 302.6-21.1ZM324.25-1.05L315.5-34.35Q315.5-34.6 317.68-34.83 319.85-35.05 321.25-35.05L321.25-35.05Q326.8-35.05 327.05-33.6L327.05-33.6 331.35-11.6 335.4-33.6Q335.7-35.05 341.6-35.05L341.6-35.05Q343.05-35.05 345.25-34.85 347.45-34.65 347.45-34.4L347.45-34.4 338.6-1.3Q338.4-0.5 335.65-0.25L335.65-0.25Q331.4 0.2 327.93-0.08 324.45-0.35 324.25-1.05L324.25-1.05ZM360.3-21.1L366.75-21.1Q367.7-21.1 367.7-17.6L367.7-17.6Q367.7-16.55 367.48-15.13 367.25-13.7 366.65-13.7L366.65-13.7 360.3-13.7 360.3-8.7 369.5-8.7Q370.35-8.7 370.65-6.5L370.65-6.5Q370.8-5.55 370.8-4.48 370.8-3.4 370.5-1.7 370.2 0 369.5 0L369.5 0 352.4 0Q350.5 0 350.5-1.55L350.5-1.55 350.5-33.7Q350.5-35 351.65-35L351.65-35 369.55-35Q370.6-35 370.6-30.58 370.6-26.15 369.55-26.15L369.55-26.15 360.3-26.15 360.3-21.1ZM374.65-2.95L374.65-2.95 374.65-34.05Q374.65-35.1 379.73-35.1 384.8-35.1 384.8-34.05L384.8-34.05 384.8-9.55 392.5-9.55Q393.4-9.55 393.75-7.2L393.75-7.2Q393.9-6.05 393.9-4.85 393.9-3.65 393.75-2.4L393.75-2.4Q393.35 0 392.45 0L392.45 0 377.05 0Q375.95 0 375.3-0.9 374.65-1.8 374.65-2.95ZM411.78 0.5Q404.75 0.5 400.33-4.1 395.9-8.7 395.9-17.53 395.9-26.35 400.38-30.9 404.85-35.45 411.93-35.45 419-35.45 423.35-30.98 427.7-26.5 427.7-17.43 427.7-8.35 423.25-3.93 418.8 0.5 411.78 0.5ZM411.8-25.85Q409.4-25.85 407.78-23.65 406.15-21.45 406.15-17.48 406.15-13.5 407.7-11.38 409.25-9.25 411.78-9.25 414.3-9.25 415.88-11.4 417.45-13.55 417.45-17.55 417.45-21.55 415.83-23.7 414.2-25.85 411.8-25.85ZM436.05 0.1L436.05 0.1Q431.5 0.1 431.5-0.9L431.5-0.9 431.5-33.3Q431.5-35 433.05-35L433.05-35 441.85-35Q449.25-35 452.53-31.95 455.8-28.9 455.8-23.1L455.8-23.1Q455.8-18.3 452.7-14.3L452.7-14.3Q451.15-12.3 448.15-11.1 445.15-9.9 441.15-9.9L441.15-9.9 441.15-0.95Q441.15-0.35 439.28-0.13 437.4 0.1 436.05 0.1ZM442.2-26.3L441.15-26.3 441.15-18.4 441.8-18.4Q443.55-18.4 444.75-19.5 445.95-20.6 445.95-22.6 445.95-24.6 445.13-25.45 444.3-26.3 442.2-26.3L442.2-26.3ZM470-21.1L476.45-21.1Q477.4-21.1 477.4-17.6L477.4-17.6Q477.4-16.55 477.18-15.13 476.95-13.7 476.35-13.7L476.35-13.7 470-13.7 470-8.7 479.2-8.7Q480.05-8.7 480.35-6.5L480.35-6.5Q480.5-5.55 480.5-4.48 480.5-3.4 480.2-1.7 479.9 0 479.2 0L479.2 0 462.1 0Q460.2 0 460.2-1.55L460.2-1.55 460.2-33.7Q460.2-35 461.35-35L461.35-35 479.25-35Q480.3-35 480.3-30.58 480.3-26.15 479.25-26.15L479.25-26.15 470-26.15 470-21.1ZM494.4-12.05L494.4-0.7Q494.4 0.1 489.65 0.1L489.65 0.1Q484.85 0.1 484.85-0.65L484.85-0.65 484.85-33.25Q484.85-35 486.7-35L486.7-35 496.25-35Q509.4-35 509.4-24.75L509.4-24.75Q509.4-21.65 508.2-19.13 507-16.6 504.8-15.1L504.8-15.1 511.1-4.6Q510.7-3.4 508.5-1.85L508.5-1.85Q505.5 0.3 503.55 0.3 501.6 0.3 500.65-1.1L500.65-1.1 495.95-12.05 494.4-12.05ZM495.45-26.15L494.4-26.15 494.4-18.65 494.65-18.65Q499.4-18.65 499.4-22.6L499.4-22.6Q499.4-24.4 498.48-25.28 497.55-26.15 495.45-26.15L495.45-26.15Z" opacity="1" transform="matrix(1,0,0,1,0,0)" fill="#000000" class="slogan-text-1" data-fill-palette-color="secondary" id="text-1"/></svg></g></svg></g></svg></g></svg></g><g/></svg></g></svg></g></svg></g></svg></g><defs/></svg><rect width="512" height="320" fill="none" stroke="none" visibility="hidden"/></g></svg></g></svg>